<?xml version="1.0" encoding="UTF-8"?>
<svg id="Capa_2" data-name="Capa 2" xmlns="http://www.w3.org/2000/svg" viewBox="0 0 644.11 483.42">
  <defs>
    <style>
      .cls-1 {
        fill: #1d1d1b;
      }
    </style>
  </defs>
  <path class="cls-1" d="M60.65,334.76c-4.82,7.97,4.72,14.26,11.34,15.92,9.91,2.5,19.28.19,28-4.72,15.82-8.91,26.48-24.7,34.6-40.49,19.29-37.5,30.16-79.77,33.03-121.76,1.66-24.3.52-48.72-3.3-72.77-.53-3.32-14.29-5.57-14.82-2.32-3.76,22.95-6.48,46.05-8.88,69.18-2.4,23.08-4.99,46.2-6.26,69.38s-1.11,45.37,3.11,67.59c1.88,9.9,4.6,19.71,8.55,28.99,3.61,8.49,8.05,17.71,16.24,22.65,13.67,8.25,38.68,5.87,42.23-12.67.58-3.04-14.18-5.64-14.82-2.32-1.25,6.54-6.06,11.87-12.45,13.87-1.05.33-2.07.54-3.16.64,2.44-.2.92.4.04-.56-.63-.69-1.71-1.25-2.39-1.88-3.16-2.9-5.41-6.8-7.39-10.56-8.74-16.55-12.75-35.17-14.55-53.67-3.89-39.94,1.62-80.4,5.76-120.11,2.38-22.8,5.07-45.58,8.78-68.21-4.94-.77-9.88-1.54-14.82-2.32,5.88,36.97,5.32,74.83-1.72,111.61-3.51,18.37-8.6,36.43-15.24,53.91-6.18,16.26-13.31,32.85-23.62,46.98-5.34,7.32-11.65,14.02-19.2,19.08-1.66,1.11-3.38,2.15-5.15,3.08-2.24,1.18-5.54,1.67-7.54,3.04l-1.05.28c1.27.55,1.46.45.56-.31-.71-.88-1.43-1.75-1.82-2.84-.83-2.31-.47-4.32.77-6.37.84-1.4-12.56-6.05-14.82-2.32h0Z"/>
  <path class="cls-1" d="M72.9,244.77c8.52-10.1,19.4-17.77,30.63-24.56,11.36-6.87,23.22-12.97,35.43-18.2,24.68-10.58,50.56-18.15,76.74-23.99,54.66-12.19,110.67-16.57,165.79-26.13,31.88-5.53,63.54-12.74,94.01-23.77,3.17-1.15,6.71-4.27,6.03-8.02s-5.02-4.49-8-3.41c-108.24,39.18-228.29,28.18-334.93,73.21-27.89,11.78-57.29,26.68-77.12,50.19-2.2,2.61-1.64,6.59,1.52,8.04,3.53,1.62,7.68-.71,9.91-3.36h0Z"/>
  <path class="cls-1" d="M162.43,221.44c7.57-4.87,15.3-9.88,23.88-12.78,8.62-2.91,17.06-1.75,25.31,1.82,13.99,6.05,25.61,17.04,33.41,30.06,15.83,26.44,14.51,59.94-4.53,84.36-9.96,12.76-23.77,22.57-39.74,25.93-1.83.39-7.25,1.96-6.65,4.73.6,2.76,6.36,1.87,8.01,1.53,34.47-7.25,64.48-35.56,68.27-71.48,3.67-34.68-17.95-71.59-51.55-82.86-24.55-8.23-47.42,3.48-67.73,16.55-2.59,1.67-1.63,3.75.97,4.42,3.31.85,7.58-.47,10.36-2.26h0Z"/>
  <path class="cls-1" d="M257.99,258.39c-2.32,34.94-3.28,75.51,25.21,101.03,6.45,5.77,14.68,10.87,23.7,9.49,6.92-1.06,12.28-6.23,15.89-11.93,9.18-14.5,12.36-34.01,13.8-50.81,1.84-21.34.11-42.83-3-63.96-.66-4.46-12.62-11.48-13.45-4.5-2.56,21.56-1.26,43.55,4.1,64.6,2.6,10.22,6.06,20.25,10.4,29.86,4.1,9.07,8.77,18.69,15.39,26.21s16.73,12.75,27.33,10.5c9.74-2.06,18.08-9.38,24.89-16.24,13.73-13.84,22.9-32.41,25.28-51.79,2.86-23.24-3.68-46.76-17.2-65.75-1.9-2.67-6.13-5.21-9.5-4.23-3.42.99-3.01,4.49-1.31,6.88,20.55,28.85,19.63,68.07-1.15,96.51-6.25,8.55-27.29,32.91-38.53,20.32-5.73-6.42-9.55-15.17-13.02-22.95-3.77-8.46-6.85-17.21-9.14-26.19-5.15-20.23-6.54-41.16-4.08-61.88l-13.45-4.5c4.6,31.26,6.22,63.78-3.35,94.33-2.61,8.33-11.2,31.53-23.56,22.04-10.77-8.27-16.95-21.99-19.98-34.89-4.33-18.46-3.05-37.56-1.81-56.3.4-6.07-13.02-12.55-13.46-5.85h0Z"/>
  <path class="cls-1" d="M411.24,241.28c7.17-14.19,21.83-21.42,37.48-20.35,14.89,1.02,27.98,10.09,35.31,22.91,8.47,14.82,8.98,33.06,6.32,49.52-2.43,14.99-8.05,29.92-22.33,37.2-8.17,4.16-17.87,6.61-27.05,5.5-7.82-.94-16.23-5.44-14.5-14.36.64-3.31-1.56-7.37-3.9-9.58-1.63-1.54-5.04-3.28-5.7.13-3.93,20.31,15.4,38.01,34.72,37.6,9.97-.21,21.15-3.62,29.24-9.52,7.61-5.56,12.38-13.7,15.43-22.48,12.99-37.42,2.48-91.67-38.4-107.3-20.54-7.86-45.17-1.2-55.43,19.1-2.26,4.48,6.51,16.2,8.82,11.63h0Z"/>
  <path class="cls-1" d="M494.67,274.75c-3.59,12.94-4.28,26.55-2.18,39.82,1.64,10.35,4.55,23.62,14.84,28.76,11.18,5.58,24.03-.39,32.62-7.92,9.33-8.17,15.83-18.94,21.95-29.58,1.81-3.15-1.29-5.62-4.14-6.15-3.42-.63-7.82.9-9.62,4.01-4.31,7.48-23.7,42.53-34.63,27.51-5.01-6.89-6.3-17.19-7.1-25.42-1.04-10.64.09-21.3,2.95-31.57,1.9-6.85-12.97-5.7-14.7.55h0Z"/>
  <path class="cls-1" d="M202.51,259.12c.26,2.55.52,5.11.78,7.66.04.39.47.84.76,1.04.37.27.92.48,1.38.46.39-.01.86-.1,1.13-.41s.31-.65.27-1.06c-.26-2.55-.52-5.11-.78-7.66-.04-.39-.47-.84-.76-1.04-.37-.27-.92-.48-1.38-.46-.39.01-.86.1-1.13.41s-.31.65-.27,1.06h0Z"/>
  <path class="cls-1" d="M452.9,264.86c0,2.04,0,4.09,0,6.13,0,.92.83,1.81,1.71,1.98.81.16,1.74-.2,1.74-1.16v-6.13c0-.92-.83-1.81-1.71-1.98-.81-.16-1.74.2-1.74,1.16h0Z"/>
</svg>