<?xml version="1.0" encoding="UTF-8"?>
<svg id="Capa_2" data-name="Capa 2" xmlns="http://www.w3.org/2000/svg" viewBox="0 0 1258.31 1258.65">
  <defs>
    <style>
      .cls-1 {
        fill: #fff;
      }

      .cls-2 {
        opacity: .25;
      }

      .cls-3 {
        fill: #3b71b7;
      }
    </style>
  </defs>
  <g id="Capa_1-2" data-name="Capa 1">
    <rect class="cls-1" x=".31" y=".65" width="1258" height="1258"/>
    <g class="cls-2">
      <rect class="cls-3" width="1258" height="1258" rx="34.58" ry="34.58"/>
      <path class="cls-1" d="M886.98,491.2s1.87-122.86-26.82-161.53c-28.69-38.67-119.74-21.2-165.27-14.34-39.62,5.97-55.86,3.2-59.4,2.38l.04-.2s-.13.04-.41.11c-.28-.07-.41-.11-.41-.11l.04.2c-3.55.82-19.79,3.59-59.4-2.38-45.53-6.86-136.58-24.32-165.27,14.34-28.69,38.67-26.82,161.53-26.82,161.53l23.08,2.49,7.65-34.73-.53,34.73,31.55,2.49,14-30.87,5.96,33.36h31.61l6.91-33.89s6.38,70.69,2.01,137.42c-.54,8.18-.52,14.99-.09,20.66-1.01,6.64-1.31,15.32-.57,26.58,4.37,66.73-2.01,137.42-2.01,137.42l-6.91-33.89h-31.61l-5.96,33.36-14-30.87-31.55,2.49.53,34.73-7.65-34.73-23.08,2.49s-1.87,122.86,26.82,161.53c28.69,38.67,119.74,21.2,165.27,14.34,39.62-5.97,55.86-3.2,59.4-2.38l-.04.2s.13-.04.41-.11c.28.07.41.11.41.11l-.04-.2c3.55-.82,19.79-3.59,59.4,2.38,45.53,6.86,136.58,24.32,165.27-14.34,28.69-38.67,26.82-161.53,26.82-161.53l-23.08-2.49-7.65,34.73.53-34.73-31.55-2.49-14,30.87-5.96-33.36h-31.61l-6.91,33.89s-6.38-70.69-2.01-137.42c.54-8.18.52-14.99.09-20.66,1.01-6.64,1.31-15.32.57-26.58-4.37-66.73,2.01-137.42,2.01-137.42l6.91,33.89h31.61l5.96-33.36,14,30.87,31.55-2.49-.53-34.73,7.65,34.73,23.08-2.49ZM711.06,900.78c-31.18,18.71-58-11.85-74.84,22.45l-1.77,8.87-1.77-8.87c-16.84-34.3-43.66-3.74-74.84-22.45-24.62-14.77-21.64-185.82-21.13-258.7,3.64-4.57-9.3-272.55,21.8-291.21,31.18-18.71,58,11.85,74.84-22.45l1.77-8.87,1.77,8.87c16.84,34.3,43.66,3.74,74.84,22.45,24.62,14.77,21.64,185.82,21.13,258.7-3.64,4.57,9.3,272.55-21.8,291.21Z"/>
      <path class="cls-1" d="M1092.67,29.01c-47.12,23.09-65.33,40.48-50.09,46.2,13.84,5.19,46.52-3.49,61.75-6.74-.03-.6.2-1.14.58-1.54l-.58,1.54s0,0,0,0c.06.88.66,1.6,1.46,1.85-15.34,8.39-71.75,33.43-73.26,39.29-1.87,7.28,8.04,38,8.04,38l77.03-34.61-63.86,51.01,18.87,28.73,66.42-56.32-50.58,57.41,13.46,19.58s52.74-44.92,54.71-45.6-22.54,36.57-22.54,36.57l10.67,8.41s129.78-96.12,90.76-150.92c-39.02-54.8-95.71-55.96-142.84-32.88ZM1118.38,72.23c2.09,3.77,5.26,9.47,19.01,16.93,6.7,3.64,12.14,4.3,16.16,1.97,8.35-4.84,8.8-20.86,8.81-21.02.03-1.15.98-2.06,2.13-2.04.89.02,1.64.6,1.92,1.4.08.23.12.48.12.74-.02.75-.54,18.53-10.88,24.53-5.36,3.11-12.17,2.47-20.24-1.91-14.82-8.04-18.48-14.63-20.67-18.57-1.28-2.32-1.91-3.43-4.24-3.77l-.9-2.68c.02-.06-.01-.1-.04-.13l-.49-1.45c5.78.19,7.32,2.4,9.32,6Z"/>
      <path class="cls-1" d="M28.5,56.88C-10.52,111.69,119.26,207.8,119.26,207.8l10.67-8.41s-24.51-37.26-22.54-36.57c1.97.69,54.71,45.6,54.71,45.6l13.46-19.58-50.58-57.41,66.42,56.32,18.87-28.73-63.86-51.01,77.03,34.61s9.91-30.73,8.04-38c-1.51-5.86-57.92-30.91-73.26-39.29.8-.26,1.4-.97,1.46-1.85,0,0,0,0,0,0l-.58-1.54c.38.4.61.94.58,1.54,15.24,3.25,47.91,11.93,61.75,6.74,15.24-5.71-2.96-23.11-50.09-46.2C124.21.92,67.51,2.08,28.5,56.88ZM154.94,61.23l-.49,1.45s-.07.07-.04.13l-.9,2.68c-2.33.34-2.96,1.45-4.24,3.77-2.19,3.94-5.85,10.53-20.67,18.57-8.07,4.37-14.88,5.02-20.24,1.91-10.35-6-10.87-23.78-10.88-24.53,0-.26.04-.5.12-.74.28-.8,1.03-1.38,1.92-1.4,1.15-.02,2.1.89,2.13,2.04,0,.16.46,16.18,8.81,21.02,4.02,2.33,9.45,1.67,16.16-1.97,13.75-7.46,16.92-13.16,19.01-16.93,2-3.6,3.54-5.82,9.32-6Z"/>
      <path class="cls-1" d="M62.41,1225.87c50.25,44.72,159.86-73.88,159.86-73.88l-7.21-11.52s-39.7,20.33-38.8,18.45,51.26-49.45,51.26-49.45l-18.01-15.5-62.55,44.07,63.18-59.93-26.52-21.87-57.63,57.96,42.75-72.83s-29.47-13.18-36.91-12.11c-5.99.86-37,54.23-47,68.57-.17-.82-.82-1.5-1.68-1.65,0,0,0,0,0,0l-1.6.41c.44-.34,1.01-.51,1.6-.41,4.88-14.79,17.05-46.34,13.39-60.66-4.03-15.77-23.3.44-51.35,44.79-28.05,44.34-33.04,100.84,17.21,145.56ZM80.42,1100.64l1.39.64s.07.07.13.06l2.56,1.19c.08,2.35,1.12,3.1,3.29,4.63,3.68,2.6,9.84,6.96,16.22,22.56,3.47,8.5,3.38,15.33-.29,20.32-7.09,9.64-24.81,8.23-25.56,8.16-.26-.02-.5-.09-.72-.2-.76-.36-1.26-1.17-1.18-2.06.1-1.15,1.11-2,2.26-1.9.16.01,16.13,1.29,21.85-6.48,2.75-3.74,2.68-9.22-.21-16.27-5.92-14.48-11.25-18.24-14.77-20.73-3.36-2.38-5.4-4.15-4.96-9.92Z"/>
      <path class="cls-1" d="M1217.8,1085.32c-28.05-44.34-47.32-60.56-51.35-44.79-3.66,14.32,8.5,45.87,13.39,60.66.59-.1,1.16.07,1.6.41l-1.6-.41s0,0,0,0c-.87.15-1.52.83-1.68,1.65-10-14.34-41.01-67.71-47-68.57-7.44-1.07-36.91,12.11-36.91,12.11l42.75,72.83-57.63-57.96-26.52,21.87,63.18,59.93-62.55-44.07-18.01,15.5s50.37,47.56,51.26,49.45c.9,1.88-38.8-18.45-38.8-18.45l-7.21,11.52s109.61,118.6,159.86,73.88c50.25-44.72,45.27-101.21,17.21-145.56ZM1177.62,1115.56c-3.52,2.49-8.85,6.25-14.77,20.73-2.89,7.06-2.96,12.53-.21,16.27,5.72,7.77,21.69,6.49,21.85,6.48,1.15-.1,2.16.75,2.26,1.9.08.89-.42,1.7-1.18,2.06-.22.11-.46.17-.72.2-.75.06-18.48,1.47-25.56-8.16-3.67-4.99-3.77-11.83-.29-20.32,6.38-15.6,12.54-19.96,16.22-22.56,2.16-1.53,3.2-2.27,3.29-4.63l2.56-1.19c.06.02.09-.02.13-.06l1.39-.64c.44,5.77-1.59,7.54-4.96,9.92Z"/>
      <g>
        <path class="cls-1" d="M984.85,488.48l-19,16.62-3.93,7.99,21.5,87.52,34.17,28.31,70.29-13.67-25.38-50.77s25.38-66.39,19.53-78.1c-5.86-11.72-79.08-94.7-94.7-88.84-15.62,5.86-15.62,62.48-15.62,62.48,0,0,60.53,68.34,48.81,85.91l-35.67-57.47Z"/>
        <path class="cls-1" d="M984.27,769.78l-19-16.62-3.93-7.99,21.5-87.52,34.17-28.31,70.29,13.67-25.38,50.77s25.38,66.39,19.53,78.1c-5.86,11.72-79.08,94.7-94.7,88.84-15.62-5.86-15.62-62.48-15.62-62.48,0,0,60.53-68.34,48.81-85.91l-35.67,57.47Z"/>
      </g>
      <g>
        <path class="cls-1" d="M293.15,488.48l19,16.62,3.93,7.99-21.5,87.52-34.17,28.31-70.29-13.67,25.38-50.77s-25.38-66.39-19.53-78.1c5.86-11.72,79.08-94.7,94.7-88.84,15.62,5.86,15.62,62.48,15.62,62.48,0,0-60.53,68.34-48.81,85.91l35.67-57.47Z"/>
        <path class="cls-1" d="M293.73,769.78l19-16.62,3.93-7.99-21.5-87.52-34.17-28.31-70.29,13.67,25.38,50.77s-25.38,66.39-19.53,78.1c5.86,11.72,79.08,94.7,94.7,88.84,15.62-5.86,15.62-62.48,15.62-62.48,0,0-60.53-68.34-48.81-85.91l35.67,57.47Z"/>
      </g>
      <g>
        <path class="cls-1" d="M383,94.73l107.47,64.31c10.86,6.5,24.94,2.96,31.44-7.9l28.01-46.82-11.92-52.78c-2.84-12.57-19.65-15.08-26.04-3.89l-17.41,30.51-82.86-10.21c-15.81-1.95-29.55,10.87-28.69,26.78h0Z"/>
        <path class="cls-1" d="M887,94.73l-107.47,64.31c-10.86,6.5-24.94,2.96-31.44-7.9l-28.01-46.82,11.92-52.78c2.84-12.57,19.65-15.08,26.04-3.89l17.41,30.51,82.86-10.21c15.81-1.95,29.55,10.87,28.69,26.78h0Z"/>
      </g>
      <g>
        <path class="cls-1" d="M887,1156.09l-107.47-64.31c-10.86-6.5-24.94-2.96-31.44,7.9l-28.01,46.82,11.92,52.78c2.84,12.57,19.65,15.08,26.04,3.89l17.41-30.51,82.86,10.21c15.81,1.95,29.55-10.87,28.69-26.78h0Z"/>
        <path class="cls-1" d="M383,1156.09l107.47-64.31c10.86-6.5,24.94-2.96,31.44,7.9l28.01,46.82-11.92,52.78c-2.84,12.57-19.65,15.08-26.04,3.89l-17.41-30.51-82.86,10.21c-15.81,1.95-29.55-10.87-28.69-26.78h0Z"/>
      </g>
      <g>
        <path class="cls-1" d="M279.55,1088.07c-55.95-20.38-57.66-40.9-50.07-51.22,7.59-10.32,49.53,24.52,49.53,24.52,39.55,9.84,38.82-31.98,38.82-31.98,0,0-29.15-4.02-42.91,5.12-13.76,9.14-29.15-4.02-36.93-8.83-7.78-4.81-.1-16.9,7.84-15.64,7.94,1.26,29.04-12.88,29.04-12.88,59.45-16.8,69.56-4.77,93.08,24.77,23.52,29.54-9.13,62.69-10.06,63.54s-56.5,87.16-56.5,87.16l-24.3-12.68,31.13-38.56-40.68,34.23-15.11-14.69,46.74-35.07-11.82,5.67-15.39,7.28-4.97-9.12,14.85-13.53-2.29-8.11Z"/>
        <path class="cls-1" d="M161.04,958.04c15.11,57.6,35.38,61.2,46.36,54.6,10.97-6.6-19.83-51.59-19.83-51.59-6.13-40.29,35.44-35.69,35.44-35.69,0,0,1.3,29.4-9.07,42.25-10.38,12.85,1.3,29.4,5.37,37.59,4.06,8.19,16.81,1.67,16.3-6.36-.52-8.02,15.51-27.73,15.51-27.73,22.23-57.64,11.2-68.82-16.04-94.98-27.23-26.16-63.27,3.29-64.2,4.13-.93.85-92.02,48.18-92.02,48.18l10.38,25.37,41.28-27.42-37.85,37.34,13.23,16.41,39.25-43.29-6.74,11.24-8.68,14.65,8.62,5.8,14.85-13.53,7.86,3.03Z"/>
      </g>
      <g>
        <path class="cls-1" d="M986.76,174.91c55.95,20.38,57.66,40.9,50.07,51.22-7.59,10.32-49.53-24.52-49.53-24.52-39.55-9.84-38.82,31.98-38.82,31.98,0,0,29.15,4.02,42.91-5.12,13.76-9.14,29.15,4.02,36.93,8.83,7.78,4.81.1,16.9-7.84,15.64-7.94-1.26-29.04,12.88-29.04,12.88-59.45,16.8-69.56,4.77-93.08-24.77-23.52-29.54,9.13-62.69,10.06-63.54.93-.85,56.5-87.16,56.5-87.16l24.3,12.68-31.13,38.56,40.68-34.23,15.11,14.69-46.74,35.07,11.82-5.67,15.39-7.28,4.97,9.12-14.85,13.53,2.29,8.11Z"/>
        <path class="cls-1" d="M1105.27,304.93c-15.11-57.6-35.38-61.2-46.36-54.6-10.97,6.6,19.83,51.59,19.83,51.59,6.13,40.29-35.44,35.69-35.44,35.69,0,0-1.3-29.4,9.07-42.25,10.38-12.85-1.3-29.4-5.37-37.59-4.06-8.19-16.81-1.67-16.3,6.36s-15.51,27.73-15.51,27.73c-22.23,57.64-11.2,68.82,16.04,94.98,27.23,26.16,63.27-3.29,64.2-4.13s92.02-48.18,92.02-48.18l-10.38-25.37-41.28,27.42,37.85-37.34-13.23-16.41-39.25,43.29,6.74-11.24,8.68-14.65-8.62-5.8-14.85,13.53-7.86-3.03Z"/>
      </g>
      <g>
        <path class="cls-1" d="M314.77,154.92c-55.89,20.53-57.55,41.06-49.93,51.36,7.62,10.29,49.47-24.66,49.47-24.66,39.52-9.95,38.91,31.87,38.91,31.87,0,0-29.14,4.1-42.92-5-13.78-9.1-29.14,4.1-36.9,8.93-7.76,4.83-.06,16.9,7.88,15.62,7.94-1.28,29.08,12.8,29.08,12.8,59.5,16.63,69.57,4.58,93.01-25.02,23.44-29.6-9.31-62.67-10.24-63.51s-56.73-87.01-56.73-87.01l-24.27,12.75,31.23,38.47-40.77-34.11-15.07,14.73,46.83,34.94-11.84-5.64-15.41-7.24-4.95,9.13,14.89,13.49-2.27,8.11Z"/>
        <path class="cls-1" d="M196.61,285.27c14.95-57.64,35.22-61.3,46.21-54.73,10.99,6.57-19.69,51.65-19.69,51.65-6.02,40.3,35.54,35.59,35.54,35.59,0,0,1.22-29.4-9.19-42.22-10.41-12.82,1.22-29.4,5.26-37.6,4.04-8.2,16.81-1.72,16.31,6.31-.49,8.03,15.59,27.68,15.59,27.68,22.39,57.58,11.38,68.79-15.78,95.02-27.16,26.23-63.28-3.11-64.21-3.96-.93-.84-92.15-47.92-92.15-47.92l10.31-25.4,41.35,27.31-37.95-37.23,13.18-16.45,39.36,43.18-6.78-11.22-8.72-14.62,8.6-5.82,14.89,13.49,7.85-3.05Z"/>
      </g>
      <g>
        <path class="cls-1" d="M972.53,1095.21c55.89-20.53,57.55-41.06,49.93-51.36-7.62-10.29-49.47,24.66-49.47,24.66-39.52,9.95-38.91-31.87-38.91-31.87,0,0,29.14-4.1,42.92,5,13.78,9.1,29.14-4.1,36.9-8.93,7.76-4.83.06-16.9-7.88-15.62-7.94,1.28-29.08-12.8-29.08-12.8-59.5-16.63-69.57-4.58-93.01,25.02-23.44,29.6,9.31,62.67,10.24,63.51s56.73,87.01,56.73,87.01l24.27-12.75-31.23-38.47,40.77,34.11,15.07-14.73-46.83-34.94,11.84,5.64,15.41,7.24,4.95-9.13-14.89-13.49,2.27-8.11Z"/>
        <path class="cls-1" d="M1090.69,964.86c-14.95,57.64-35.22,61.3-46.21,54.73-10.99-6.57,19.69-51.65,19.69-51.65,6.02-40.3-35.54-35.59-35.54-35.59,0,0-1.22,29.4,9.19,42.22,10.41,12.82-1.22,29.4-5.26,37.6s-16.81,1.72-16.31-6.31c.49-8.03-15.59-27.68-15.59-27.68-22.39-57.58-11.38-68.79,15.78-95.02,27.16-26.23,63.28,3.11,64.21,3.96s92.15,47.92,92.15,47.92l-10.31,25.4-41.35-27.31,37.95,37.23-13.18,16.45-39.36-43.18,6.78,11.22,8.72,14.62-8.6,5.82-14.89-13.49-7.85,3.05Z"/>
      </g>
      <path class="cls-1" d="M109.96,690.43s-20-29.41-22.35-29.41c-2.35,0-23.52-5.88-28.23-14.11-4.7-8.23-40.58-21.76-42.93-28.82-2.35-7.06,3.53-20,3.53-20l42.95,11.02-15.23-76.28,15.23-5.41,17.43,34.94-1.57-41.91,10.59-3.53,7.09,38.52,6.36-9.98.66-32.08,16.47,5.88,2.71,37.27,4.92-12.78,6.48-25.66,12.94,2.35-6.39,56.82s19.33,73.74,13.44,85.5-44.11,27.64-44.11,27.64Z"/>
      <path class="cls-1" d="M1154.68,690.86s20-29.41,22.35-29.41c2.35,0,23.52-5.88,28.23-14.11,4.7-8.23,40.58-21.76,42.93-28.82,2.35-7.06-3.53-20-3.53-20l-42.95,11.02,15.23-76.28-15.23-5.41-17.43,34.94,1.57-41.91-10.59-3.53-7.09,38.52-6.36-9.98-.66-32.08-16.47,5.88-2.71,37.27-4.92-12.78-6.48-25.66-12.94,2.35,6.39,56.82s-19.33,73.74-13.44,85.5c5.88,11.76,44.11,27.64,44.11,27.64Z"/>
    </g>
  </g>
</svg>